<svg xmlns="http://www.w3.org/2000/svg" width="16.269" height="15.2" viewBox="0 0 16.269 15.2">
  <g id="Group_36376" data-name="Group 36376" transform="translate(-1439.9 -2639.51)">
    <g id="noun-history-4070610" transform="translate(1440 2639.61)">
      <path id="Path_37041" data-name="Path 37041" d="M112.5,50a7.5,7.5,0,1,1,7.5-7.5.536.536,0,0,1-1.071,0,6.429,6.429,0,1,0-6.429,6.429.536.536,0,1,1,0,1.071Z" transform="translate(-105 -35)" fill="#51535b" stroke="#51535b" stroke-width="0.2"/>
      <path id="Path_37042" data-name="Path 37042" d="M73.008,280l1.515,2.218L76.038,280Z" transform="translate(-60.059 -272.5)" fill="#51535b" stroke="#51535b" stroke-width="0.2" fill-rule="evenodd"/>
      <path id="Path_37043" data-name="Path 37043" d="M333.036,140a.536.536,0,0,0-.536.536v4.286h1.071v-4.286A.536.536,0,0,0,333.036,140Z" transform="translate(-325.536 -136.786)" fill="#43C3B1" stroke="#43C3B1" stroke-width="0.2" fill-rule="evenodd"/>
      <path id="Path_37044" data-name="Path 37044" d="M332.539,269.165a.535.535,0,0,0,.724.221l3.311-1.76-.5-.946-3.311,1.761a.536.536,0,0,0-.221.725Z" transform="translate(-328.538 -259.588)" fill="#43C3B1" stroke="#43C3B1" stroke-width="0.2" fill-rule="evenodd"/>
    </g>
  </g>
</svg>
