<svg xmlns="http://www.w3.org/2000/svg" width="15.82" height="17.618" viewBox="0 0 15.82 17.618">
  <g id="noun-power-1005558" transform="translate(-104.678 -5.668)">
    <path id="Path_37918" data-name="Path 37918" d="M112.583,99.882a7.647,7.647,0,0,1-3.206-14.589.294.294,0,0,1,.247.533,7.059,7.059,0,1,0,5.92,0,.3.3,0,0,1,.255-.533,7.647,7.647,0,0,1-3.216,14.589Z" transform="translate(0 -76.845)" fill="#51535b" stroke="#51535b" stroke-width="0.5"/>
    <path id="Path_37919" data-name="Path 37919" d="M338.472,13.077a.294.294,0,0,1-.294-.286V6.212a.294.294,0,1,1,.588,0v6.579A.294.294,0,0,1,338.472,13.077Z" transform="translate(-225.889 0)" fill="#51535b" stroke="#51535b" stroke-width="0.5"/>
  </g>
</svg>
