<svg xmlns="http://www.w3.org/2000/svg" xmlns:xlink="http://www.w3.org/1999/xlink" width="18.8" height="18.8" viewBox="0 0 18.8 18.8">
  <defs>
    <clipPath id="clip-path">
      <rect id="Rectangle_8782" data-name="Rectangle 8782" width="18.8" height="18.8" transform="translate(3549.471 6322)" fill="#fff" opacity="0.33"/>
    </clipPath>
  </defs>
  <g id="Mask_Group_36407" data-name="Mask Group 36407" transform="translate(-3549.471 -6322)" clip-path="url(#clip-path)">
    <g id="noun-clients-199530" transform="translate(3544.942 6298.087)">
      <g id="Group_36416" data-name="Group 36416" transform="translate(5 29.182)">
        <path id="Path_37965" data-name="Path 37965" d="M72.784,41.44a.086.086,0,0,0,.074.032.062.062,0,0,0,.032-.016,1.984,1.984,0,0,0,.625.944.822.822,0,0,0,1.088-.009,1.992,1.992,0,0,0,.614-.936.062.062,0,0,0,.032.016.078.078,0,0,0,.063-.023.5.5,0,0,0,.125-.277c.03-.166,0-.312-.06-.341l-.014,0a.075.075,0,0,0-.059.019h0v0a1.294,1.294,0,0,0-.267-.563.292.292,0,0,0-.06-.026c0,.042.045.106.05.168a1.105,1.105,0,0,0-.454-.168c-.044,0-.092,0-.141,0a1.586,1.586,0,0,1-.957-.021c-.572-.053-.662.541-.669.609,0,0,0,0,0,0h0a.077.077,0,0,0-.061-.02.055.055,0,0,0-.024.011.135.135,0,0,0-.042.067c-.006.08-.009.161-.011.244,0,.008,0,.015,0,.023A.534.534,0,0,0,72.784,41.44Z" transform="translate(-59.239 -38.039)" fill="none"/>
        <path id="Path_37966" data-name="Path 37966" d="M40.742,39.34a.11.11,0,0,0,.094.041.079.079,0,0,0,.04-.021,2.521,2.521,0,0,0,.794,1.2,1.046,1.046,0,0,0,1.384-.011,2.534,2.534,0,0,0,.781-1.19.079.079,0,0,0,.04.021.1.1,0,0,0,.081-.029.638.638,0,0,0,.16-.352c.037-.211,0-.4-.076-.434l-.018-.006a.1.1,0,0,0-.075.025l0,0h0v0a1.651,1.651,0,0,0-.339-.716.375.375,0,0,0-.077-.033c0,.053.058.135.064.214a1.407,1.407,0,0,0-.577-.214c-.056,0-.117,0-.179,0a2.017,2.017,0,0,1-1.217-.027c-.727-.067-.842.688-.851.774,0,0,0,0,0,.006h0a.1.1,0,0,0-.077-.026.073.073,0,0,0-.031.013.173.173,0,0,0-.054.086c-.007.1-.012.2-.013.311,0,.01,0,.019,0,.029A.679.679,0,0,0,40.742,39.34Z" transform="translate(-33.529 -36.091)" fill="none"/>
        <path id="Path_37967" data-name="Path 37967" d="M13.441,41.711a.086.086,0,0,0,.073.032.061.061,0,0,0,.031-.016,1.959,1.959,0,0,0,.618.934.814.814,0,0,0,1.076-.008,1.973,1.973,0,0,0,.607-.926.061.061,0,0,0,.031.016.078.078,0,0,0,.063-.022.5.5,0,0,0,.124-.274c.029-.164,0-.308-.059-.337l-.014,0a.075.075,0,0,0-.059.019h0a.022.022,0,0,0,0,0,1.284,1.284,0,0,0-.264-.557.288.288,0,0,0-.06-.025c0,.041.045.1.05.166a1.094,1.094,0,0,0-.449-.166c-.044,0-.091,0-.14,0a1.569,1.569,0,0,1-.947-.021c-.565-.053-.655.535-.662.6,0,0,0,0,0,0h0a.076.076,0,0,0-.06-.02.058.058,0,0,0-.024.01.133.133,0,0,0-.042.067c-.006.079-.009.159-.01.241,0,.008,0,.015,0,.023A.524.524,0,0,0,13.441,41.711Z" transform="translate(-11.672 -38.266)" fill="none"/>
        <path id="Path_37968" data-name="Path 37968" d="M72.291,54.763c-.346-1.19-.985-1.231-1.123-1.263-.271-.063-.6-.037-.774-.091a4.741,4.741,0,0,1-.847,1.09l-.142-.547a.352.352,0,0,0,.13-.317H69a.354.354,0,0,0,.127.315l-.139.548a4.755,4.755,0,0,1-.847-1.09c-.175.055-.5.028-.774.091a1.078,1.078,0,0,0-.662.361,3.047,3.047,0,0,1,.773,1.4,1.209,1.209,0,0,1,.028.551,10.393,10.393,0,0,0,1.763.136c1.2,0,2.7-.165,2.979-.7A.651.651,0,0,0,72.291,54.763Z" transform="translate(-54.46 -48.602)" fill="#fff"/>
        <path id="Path_37969" data-name="Path 37969" d="M71.509,36.43a2.554,2.554,0,0,0,.579.92,1.426,1.426,0,0,0,.465.313.942.942,0,0,0,.715,0,1.444,1.444,0,0,0,.479-.328,2.562,2.562,0,0,0,.565-.908c.1-.028.2-.208.238-.438.045-.25,0-.467-.094-.5,0-.061.006-.122.006-.186a1.368,1.368,0,0,0-1.369-1.487,1.511,1.511,0,0,0-1.529.722,1.563,1.563,0,0,0-.151.585,1.493,1.493,0,0,0-.045.357h0v0h-.005c-.107.019-.155.246-.108.508C71.3,36.23,71.409,36.416,71.509,36.43Zm.024-.674a.135.135,0,0,1,.042-.067.055.055,0,0,1,.024-.011.077.077,0,0,1,.061.02h0s0,0,0,0c.007-.068.1-.662.669-.609a1.586,1.586,0,0,0,.957.021c.049,0,.1,0,.141,0a1.105,1.105,0,0,1,.454.168c0-.062-.053-.126-.05-.168a.3.3,0,0,1,.06.026,1.3,1.3,0,0,1,.267.563v0h0a.076.076,0,0,1,.059-.019l.014,0c.063.029.089.175.06.341a.5.5,0,0,1-.125.277.079.079,0,0,1-.063.023.062.062,0,0,1-.032-.016,1.991,1.991,0,0,1-.614.936.822.822,0,0,1-1.088.009,1.981,1.981,0,0,1-.625-.944.063.063,0,0,1-.032.016.086.086,0,0,1-.074-.032.532.532,0,0,1-.115-.267c0-.008,0-.015,0-.023C71.524,35.917,71.527,35.836,71.533,35.756Z" transform="translate(-58.097 -32.89)" fill="#fff"/>
        <path id="Path_37970" data-name="Path 37970" d="M10.466,53.908a1.054,1.054,0,0,0-.567-.269c-.268-.063-.592-.036-.765-.09C9.1,53.8,8.615,54,8.017,54s-1.085-.2-1.115-.455c-.173.054-.5.028-.765.09-.136.032-.768.072-1.11,1.249a.642.642,0,0,0,.045.476c.28.53,1.754.693,2.946.693A10.766,10.766,0,0,0,9.6,55.95a1.212,1.212,0,0,1,.022-.58A2.946,2.946,0,0,1,10.466,53.908Z" transform="translate(-5 -48.714)" fill="#fff"/>
        <path id="Path_37971" data-name="Path 37971" d="M12.179,36.472a2.518,2.518,0,0,0,.572.909,1.416,1.416,0,0,0,.459.31.928.928,0,0,0,.707,0,1.425,1.425,0,0,0,.474-.325,2.535,2.535,0,0,0,.559-.9c.1-.028.195-.206.235-.434.044-.247,0-.462-.093-.5,0-.06.006-.121.006-.184a1.414,1.414,0,0,0-1.354-1.541,1.5,1.5,0,0,0-1.512.714,1.947,1.947,0,0,0-.149.649,1.481,1.481,0,0,0-.044.353h0a.012.012,0,0,1,0,0h-.005c-.106.018-.154.243-.107.5C11.972,36.274,12.08,36.458,12.179,36.472Zm.024-.667a.132.132,0,0,1,.042-.067.057.057,0,0,1,.024-.01.076.076,0,0,1,.06.02h0s0,0,0,0c.007-.067.1-.655.662-.6a1.569,1.569,0,0,0,.947.021c.049,0,.1,0,.14,0a1.094,1.094,0,0,1,.449.166c0-.062-.052-.125-.05-.166a.305.305,0,0,1,.06.025,1.282,1.282,0,0,1,.264.557.022.022,0,0,1,0,0h0a.075.075,0,0,1,.059-.019l.014,0c.062.029.088.173.059.337a.5.5,0,0,1-.124.274.078.078,0,0,1-.063.022.061.061,0,0,1-.031-.016,1.97,1.97,0,0,1-.607.926.814.814,0,0,1-1.076.008,1.96,1.96,0,0,1-.618-.934.062.062,0,0,1-.031.016.086.086,0,0,1-.073-.032.525.525,0,0,1-.114-.265c0-.008,0-.015,0-.023C12.194,35.964,12.2,35.884,12.2,35.805Z" transform="translate(-10.541 -32.89)" fill="#fff"/>
        <path id="Path_37972" data-name="Path 37972" d="M39.118,32.607a3.24,3.24,0,0,0,.736,1.169,1.816,1.816,0,0,0,.591.4,1.194,1.194,0,0,0,.909,0,1.828,1.828,0,0,0,.61-.417,3.26,3.26,0,0,0,.719-1.155c.122-.036.25-.265.3-.557.057-.317,0-.594-.119-.64,0-.078.007-.156.007-.236a1.818,1.818,0,0,0-1.741-1.981,1.921,1.921,0,0,0-1.944.918,2.5,2.5,0,0,0-.192.835,1.9,1.9,0,0,0-.057.454h0a.022.022,0,0,1,0,0h-.007c-.136.024-.2.313-.138.646C38.853,32.352,38.991,32.589,39.118,32.607Zm.031-.857a.17.17,0,0,1,.054-.086.071.071,0,0,1,.031-.013.1.1,0,0,1,.077.026h0v-.006c.009-.087.124-.842.851-.774a2.017,2.017,0,0,0,1.217.027c.062,0,.123,0,.179,0a1.408,1.408,0,0,1,.577.214c-.006-.079-.067-.16-.064-.214a.386.386,0,0,1,.077.033,1.653,1.653,0,0,1,.339.716v0h0l0,0a.1.1,0,0,1,.075-.025l.018.006c.079.037.113.222.076.434a.639.639,0,0,1-.16.352.1.1,0,0,1-.081.029.078.078,0,0,1-.04-.021,2.532,2.532,0,0,1-.781,1.19,1.046,1.046,0,0,1-1.384.011,2.523,2.523,0,0,1-.794-1.2.077.077,0,0,1-.04.021.111.111,0,0,1-.094-.041.677.677,0,0,1-.146-.34c0-.01,0-.019,0-.029C39.137,31.954,39.142,31.851,39.149,31.75Z" transform="translate(-32.074 -29.182)" fill="#43c3b1"/>
        <path id="Path_37973" data-name="Path 37973" d="M36.186,54.679c-.344-.081-.762-.046-.984-.116-.039.326-.666.585-1.434.585s-1.4-.259-1.434-.585c-.223.07-.639.035-.984.116-.175.041-.988.093-1.428,1.606a.826.826,0,0,0,.059.612c.36.681,2.252.891,3.783.891h.008c1.531,0,3.423-.21,3.783-.891a.826.826,0,0,0,.059-.612C37.173,54.772,36.361,54.72,36.186,54.679Z" transform="translate(-24.95 -49.527)" fill="#43c3b1"/>
      </g>
    </g>
  </g>
</svg>
