<svg xmlns="http://www.w3.org/2000/svg" width="16.293" height="18.688" viewBox="0 0 16.293 18.688">
  <g id="Group_36397" data-name="Group 36397" transform="translate(-2815.355 -2554.396)">
    <path id="bell-Filled_1_" d="M212.729,2644.271h3.833a1.917,1.917,0,0,1-3.833,0Zm9.815-4.049-1.06-1.769a4.313,4.313,0,0,1-.613-2.216v-2.517a6.224,6.224,0,0,0-12.449,0v2.517a4.313,4.313,0,0,1-.613,2.216l-1.06,1.769a1.725,1.725,0,0,0,1.481,2.612h12.836a1.723,1.723,0,0,0,1.479-2.612Z" transform="translate(2608.854 -73.104)" fill="#fff"/>
    <path id="bell-Filled_1_2" data-name="bell-Filled_1_" d="M212.729,2644.271h3.833a1.917,1.917,0,0,1-3.833,0Z" transform="translate(2608.854 -73.104)" fill="#ec008c"/>
  </g>
</svg>
