<svg id="saudi-arabia" xmlns="http://www.w3.org/2000/svg" width="21.992" height="14.661" viewBox="0 0 21.992 14.661">
  <path id="Path_26" data-name="Path 26" d="M0,0H21.992V14.661H0Z" fill="#006c35"/>
  <path id="Path_27" data-name="Path 27" d="M10.227,3.936a.112.112,0,0,0-.052.02.388.388,0,0,0-.163.274c0,.072-.017.072.03.117s.068.044.137.008a.145.145,0,0,0,.066-.1c.016-.082-.086.039-.1-.052s.042-.119.1-.2c0-.038,0-.07-.023-.071Zm1,.006c-.019,0-.043.027-.075.086a.364.364,0,0,0-.051.348,1.034,1.034,0,0,1,.057.542,1.043,1.043,0,0,1-.1.148.171.171,0,0,1-.221.03A.236.236,0,0,1,10.7,4.91a2.55,2.55,0,0,0-.02-.6.109.109,0,0,0-.181-.037,1.368,1.368,0,0,0-.329.675c-.051.164-.1.117-.143.05-.093-.087-.1-.765-.211-.653-.179.511.1,1.072.3,1.017.141.058.23-.21.288-.5.039-.082.07-.092.09-.049-.005.39.028.477.128.6a.324.324,0,0,0,.423.007l.174-.174a.1.1,0,0,1,.145-.007c.053.048.046.132.16.19a.352.352,0,0,0,.348-.073c.064-.11.079-.147.109-.189.046-.061.124-.034.124-.015s-.053.067-.022.128c.054.041.067.015.1.005.114-.054.2-.3.2-.3.005-.092-.047-.085-.081-.066s-.046.036-.09.062c-.056.008-.163.045-.216-.038a3.267,3.267,0,0,1-.1-.337c0-.007-.073-.157-.006-.167.034.006.107.025.118-.036.036-.059-.077-.228-.153-.312a.165.165,0,0,0-.247-.007c-.062.057-.053.121-.065.181a.283.283,0,0,0,.058.247.753.753,0,0,1,.137.5.2.2,0,0,1-.181.092c-.048-.01-.126-.031-.168-.338-.031-.232.008-.558-.091-.71-.022-.057-.041-.113-.073-.109Zm-.316.025c-.03,0-.063.037-.09.1a1.7,1.7,0,0,0-.047.318c-.018.079.083.113.129.011a.973.973,0,0,0,.074-.346c-.011-.06-.037-.09-.067-.087Zm1.167.021c-.031,0-.055.021-.064.066a.7.7,0,0,0,.012.253.9.9,0,0,0,.142.215c.2.272.4.545.585.827q.044.308.065.619a12.474,12.474,0,0,1,.012,1.478c.084,0,.218-.136.266-.339a9.862,9.862,0,0,0-.014-1.022c0-.069-.006-.151-.011-.237q.344.562.639,1.151c.076-.036.059-.463.015-.523-.167-.359-.4-.712-.47-.849-.027-.049-.117-.186-.224-.345-.02-.226-.041-.417-.055-.475-.034-.239.1.027.08-.112a1.527,1.527,0,0,0-.33-.619c-.05-.071-.049-.085-.126.017a.455.455,0,0,0-.032.274q-.038-.056-.082-.108c-.134-.115-.142-.121-.254-.215a.275.275,0,0,0-.153-.059Zm3.46.036c-.015,0-.031,0-.049.032a.208.208,0,0,0-.071.158c.009.126.031.255.039.38l.009.05a.491.491,0,0,0-.032-.038c-.245-.258.113-.042-.047-.241a1.909,1.909,0,0,0-.29-.284c-.058-.037-.093-.109-.112.013a2.4,2.4,0,0,0-.008.321.431.431,0,0,0,.1.2q.255.314.5.638c.035.455.045.872.081,1.328-.005.195-.065.454-.122.478,0,0-.087.05-.145-.005a1.739,1.739,0,0,1-.211-.281.128.128,0,0,0-.205,0,2.832,2.832,0,0,0-.361.681c-.03.047-.113.087-.206,0a.96.96,0,0,1-.127-.663.734.734,0,0,0-.07.714.56.56,0,0,0,.26.3.183.183,0,0,0,.271-.029c.124-.128.125-.456.183-.52a.108.108,0,0,1,.192-.046.473.473,0,0,0,.176.152.3.3,0,0,0,.389.027.45.45,0,0,0,.207-.253A8.872,8.872,0,0,0,15.9,5.7c.087.123.173.248.258.375A9.292,9.292,0,0,1,16.2,7.242c-.009.075.261-.223.259-.365,0-.124,0-.236,0-.34.131.209.258.422.378.637.074-.039.049-.46,0-.518-.125-.21-.286-.438-.411-.614-.025-.222-.058-.484-.073-.564-.024-.125-.048-.313-.083-.462a1.576,1.576,0,0,1-.03-.261c.015-.041.07,0,.1-.047a1.665,1.665,0,0,0-.234-.651c-.033-.06-.093-.039-.168.059-.069.065-.044.212-.017.352.068.357.129.721.178,1.083q-.152-.226-.306-.449l-.014-.071c0-.006-.015-.292-.028-.36,0-.028-.009-.036.02-.032a.167.167,0,0,0,.054.036c.031.006.058-.047.039-.1l-.288-.532a.08.08,0,0,0-.039-.026Zm-8.93.009c-.053,0-.112.031-.089.1-.013.035.1.152.125.217.018.046-.018.194.02.208s.084-.1.1-.212c.01-.06,0-.264-.137-.306l-.022,0Zm10.172,0c-.012,0-.027.021-.049.069a.637.637,0,0,0-.051.389,21.407,21.407,0,0,1,.248,2.528.819.819,0,0,1-.049.208,1.669,1.669,0,0,1-.243.283c-.08.06-.251.117-.307.161-.177.1-.178.22-.035.225a.883.883,0,0,0,.74-.353,1.177,1.177,0,0,0,.12-.457,10.669,10.669,0,0,0-.135-2.237,1.108,1.108,0,0,1-.024-.21c.016-.041.1,0,.126-.043s-.209-.365-.3-.5C16.806,4.06,16.8,4.032,16.78,4.034Zm-2.59.014c-.01,0-.025.017-.053.054a1.209,1.209,0,0,0-.067.55A11.956,11.956,0,0,1,14.4,7.3c.084,0,.181-.192.223-.383a3.248,3.248,0,0,0-.022-.577c-.007-.154-.175-1.408-.209-1.525-.041-.221.163-.029.141-.158-.071-.162-.247-.4-.3-.539-.021-.038-.023-.073-.04-.07Zm-6.305.017a.066.066,0,0,0-.05.051c0,.019.008.052-.009.061s-.048,0-.047-.05a.09.09,0,0,0-.02-.046.04.04,0,0,0-.027-.006c-.017,0-.016.005-.026.019a.159.159,0,0,0-.009.045c0,.019-.01.026-.024.028s-.012,0-.025-.006-.017-.012-.017-.026a.151.151,0,0,0-.008-.048.051.051,0,0,0-.029-.016c-.066,0-.071.076-.067.1,0,.005-.007.14.082.177.121.058.347.033.337-.161,0-.017,0-.075-.005-.091a.052.052,0,0,0-.057-.036Zm1.618,0a.269.269,0,0,0-.11.03.208.208,0,0,0-.036.276c.061.029.122.091.082.125-.173.185-.624.494-.647.551v0a.013.013,0,0,0,0,0,0,0,0,0,0,0,0v0h0a1.284,1.284,0,0,0,.336,0h0s0,0,0,0a4.748,4.748,0,0,0,.557-.562c-.024-.02-.046-.035-.07-.056s-.023-.044,0-.066a.182.182,0,0,0,.018-.279A.3.3,0,0,0,9.5,4.067Zm4.23,0c-.012,0-.027.02-.049.068a.772.772,0,0,0-.087.389c.118.816.154,1.529.231,2.345a.322.322,0,0,1-.058.239,2.3,2.3,0,0,1-.778.567c-.033.037.081.194.229.193a.869.869,0,0,0,.665-.532.949.949,0,0,0,.151-.409,8.921,8.921,0,0,0-.166-2.071.343.343,0,0,1,.007-.145c.016-.019.07,0,.1-.047s-.113-.4-.2-.538c-.018-.035-.028-.062-.044-.06ZM7.18,4.093a.108.108,0,0,0-.082.069,2.363,2.363,0,0,0,.008.382,4.171,4.171,0,0,1,.107.614c.008.29-.167.125-.159-.018a1.306,1.306,0,0,0-.006-.555c-.029-.075-.062-.093-.131-.081-.055,0-.2.152-.237.409a2.422,2.422,0,0,0-.048.249c-.019.133-.107.227-.169-.018-.053-.178-.085-.617-.174-.514-.025.342-.056.945.235,1.007.352.034.158-.6.285-.709.024-.056.069-.057.072.014v.534a.257.257,0,0,0,.2.261c.092-.007.154,0,.19.085q.022.462.044.925s.213.061.224-.52a5.432,5.432,0,0,1-.022-.694c0-.065.085-.068.143-.037.092.065.133.145.276.113.218-.06.349-.166.352-.333a1.449,1.449,0,0,0-.1-.476c.01-.029-.042-.1-.032-.133.039.061.1.056.112,0a.476.476,0,0,0-.188-.29c-.077-.068-.19-.053-.231.088a.77.77,0,0,0,.178.514.5.5,0,0,1,.045.257A.137.137,0,0,1,7.893,5.2s-.173-.13-.173-.159a.621.621,0,0,0-.016-.41.553.553,0,0,0-.115-.225c-.043-.046-.1-.046-.13,0a.776.776,0,0,0,.015.545c.04.117.1.191.072.191-.024.066-.073.051-.109-.026a1.905,1.905,0,0,1-.061-.5c-.015-.132-.032-.413-.119-.485a.082.082,0,0,0-.077-.039Zm1.236,0c-.017,0-.037.012-.06.017a.175.175,0,0,0-.123.214c.088.538.146.948.235,1.485.014.063-.039.146-.107.137-.116-.078-.144-.237-.342-.23a.385.385,0,0,0-.326.307.745.745,0,0,0,0,.352.286.286,0,0,0,.326.081c.087-.036.158-.121.189-.1h0s0,0,0,0c.019.033,0,.313-.409.529-.25.112-.449.139-.556-.065-.066-.128,0-.614-.158-.5C6.6,7.567,8.217,7.741,8.4,6.373c.012-.039.047-.077.072-.068s.021.02.025.048c-.037,1.238-1.249,1.323-1.455.934a1.2,1.2,0,0,1-.071-.419.209.209,0,0,0-.049-.134c-.049-.037-.115.059-.129.226a1.5,1.5,0,0,0-.015.3c.065.978,1.624.558,1.878-.25a2.692,2.692,0,0,0,.039-.772H8.7c.155.167.372.021.42-.037a.07.07,0,0,1,.107-.01.25.25,0,0,0,.377-.107,3.391,3.391,0,0,0,.052-.464.47.47,0,0,0-.168.07.044.044,0,0,0-.012.022l-.02.133a.033.033,0,0,1,0,.01.043.043,0,0,1-.015.014c-.028.015-.076.007-.079-.034-.037-.17-.191-.192-.285.071-.063.051-.178.061-.19-.016.015-.177-.056-.2-.2-.117-.046-.35-.091-.685-.137-1.035.06,0,.114.041.169-.027a1.968,1.968,0,0,0-.254-.591h0L8.449,4.1l0,0-.009,0a.047.047,0,0,0-.019,0Zm4.819,0c-.062,0-.13.037-.1.115-.016.042.133.185.157.264.043.12-.033.235.012.252s.1-.124.12-.257a.4.4,0,0,0-.159-.371l-.026,0ZM9.481,4.23a.091.091,0,0,1,.079.06c.018.039.009.076-.02.083s-.067-.019-.084-.058-.009-.077.02-.084h.005Zm6.964.181a.091.091,0,0,0-.093.125c-.014.046.12.2.142.286.02.06-.03.255.011.273s.09-.135.11-.278c.011-.078-.047-.353-.146-.4l-.024,0Zm-3.85.1c.005.023.01.046.014.07.012.051.021.1.032.151-.044-.061-.081-.111-.1-.128C12.443,4.479,12.546,4.52,12.595,4.506Zm.887.436a.067.067,0,0,0-.05.052c0,.019.009.051-.008.06s-.049,0-.048-.049a.093.093,0,0,0-.02-.047.04.04,0,0,0-.027-.006c-.017,0-.016.005-.026.019a.167.167,0,0,0-.009.045c0,.019-.009.026-.023.028s-.013,0-.026-.006-.016-.012-.016-.026a.151.151,0,0,0-.008-.048.05.05,0,0,0-.029-.016c-.066,0-.07.075-.066.1,0,.005-.008.14.082.178.121.058.348.032.338-.162,0-.017,0-.075-.006-.091A.052.052,0,0,0,13.482,4.942Zm-4.05.04A.1.1,0,0,0,9.375,5a.248.248,0,0,0-.082.329.161.161,0,0,0,.173.056c.1.013.167-.2.167-.2s0-.059-.121.052c-.052.01-.059-.009-.072-.038a.26.26,0,0,1,.017-.164c.012-.033,0-.053-.025-.056Zm5.725.027a.135.135,0,0,0-.138.116c0,.048.022.074.017.117-.006.025-.032.041-.093.012.009-.009-.039-.078-.039-.078-.047-.029-.111,0-.152.028a.232.232,0,0,0-.014.184c.068.126.3.341.413.343,0-.113.013-.264.019-.358,0-.035.011-.074.045-.083s.093.034.093,0a.487.487,0,0,0-.061-.229.115.115,0,0,0-.091-.049ZM10.418,5.4l0,0,0,0a.586.586,0,0,1-.057.051c-.052.06-.062.1-.059.221,0,.013.1.281.181.47a1.458,1.458,0,0,1,.069.633,1.56,1.56,0,0,1-.64.669.334.334,0,0,1-.268,0h0A.166.166,0,0,1,9.566,7.3h0a1.508,1.508,0,0,0,.642-.664.68.68,0,0,0,.017-.478.455.455,0,0,0-.108-.222h0c.036-.017.129.052.144.008a.7.7,0,0,0-.184-.34.156.156,0,0,0-.226-.014c-.078.043-.094.2-.057.334.042.1.154.12.234.326h0c0,.013.027.154-.013.211a2.524,2.524,0,0,1-.482.453l0,0H9.527v0c0-.008,0-.029,0-.063,0-.062.023-.2.021-.226h0c-.139.09-.184.364-.21.445a6.582,6.582,0,0,0-.98.669c-.12.187.824-.214.934-.263l0,0c.021.023.023.1.085.175a.5.5,0,0,0,.509.164,1.617,1.617,0,0,0,.736-.612c.029-.041.073-.074.115-.042a1.153,1.153,0,0,0,1.044.548c.118-.144.062-.215.014-.245-.015-.01-.254-.1-.291-.2s.034-.163.148-.221a5.129,5.129,0,0,0,.963-.184.847.847,0,0,1,.106-.33.155.155,0,0,1,.054-.059h0v0a.03.03,0,0,0,0-.009l-.053-.031-1.047,0a.112.112,0,0,1-.028-.015l0,0h0v0h0v0h0v0a.078.078,0,0,1,.033-.019c.25-.034.694-.107.724-.534a.351.351,0,1,0-.689.015c-.01.058.019.17-.039.183-.385.035-.805.276-.819.449h-.017a.1.1,0,0,1-.052-.106,2.065,2.065,0,0,0-.264-.9c-.054-.054-.078-.076-.093-.079h-.007Zm1,.158a.066.066,0,0,0-.05.051c0,.019.009.052-.008.061s-.049,0-.048-.049a.093.093,0,0,0-.02-.047.037.037,0,0,0-.026-.006c-.017,0-.017.005-.027.019a.167.167,0,0,0-.009.045c0,.019-.009.026-.023.028s-.012,0-.025-.006-.017-.011-.017-.026a.152.152,0,0,0-.007-.048.052.052,0,0,0-.03-.016c-.066,0-.07.075-.066.1,0,.005-.008.14.082.178.121.058.408.024.338-.162,0-.017,0-.075-.006-.091A.052.052,0,0,0,11.42,5.561Zm4.046.166h-.01s-.559.4-.573.411c-.055.049-.028.223,0,.2a2.225,2.225,0,0,0,.592-.411c.025,0,.036-.2-.009-.2Zm-3.518.059a.143.143,0,0,1,.082.022c.042.024.067.061.064.087,0,0,0,0,0,0l0,0v.006l-.006.006a.1.1,0,0,1-.11-.009.11.11,0,0,1-.064-.087v0a.031.031,0,0,1,0-.009l0,0h0l0,0a.052.052,0,0,1,.027-.01Zm-4.894.1a.931.931,0,0,0-.725.587c.306-.147.606-.288.916-.44-.05-.075,0-.142-.192-.147Zm.938.13a.078.078,0,0,1,.074.054.094.094,0,0,1-.016.093s0,0,0,0v0c-.012.016-.055.009-.085.009a.083.083,0,0,1-.077-.038c-.011-.033.022-.066.036-.091h0L7.93,6.04a.1.1,0,0,1,.05-.022Zm7.365.115a.1.1,0,0,0-.078.133c-.014.046.07.206.092.29.02.06-.025.231.016.249s.136-.1.133-.254c.011-.078-.028-.367-.126-.416a.093.093,0,0,0-.036,0ZM9.1,6.415c-.046,0-.086.028-.068.092,0,.047.129.1.137.211.019.044-.028.187.011.2s.086-.1.1-.2c.01-.058-.045-.259-.139-.3A.161.161,0,0,0,9.1,6.415Zm1.872.256h.012a3.248,3.248,0,0,0,.438.05c.122.008.182.1.068.143s-.22.069-.221.231a.224.224,0,0,1,0,.142l0,0h-.005l-.005,0H11.25c-.027,0-.066-.022-.094-.037a.594.594,0,0,1-.291-.429.109.109,0,0,1,.11-.114Zm-4.573.2c-.007,0-.022.022-.041.047a.909.909,0,0,0-.093.806.2.2,0,0,0,.2.065.358.358,0,0,0,.13-.346c-.036-.057-.065-.065-.1-.017-.076.155-.108.049-.115-.038A1.984,1.984,0,0,1,6.4,6.952c.009-.061.009-.083,0-.082Zm5.869.36a.079.079,0,0,0-.04.008.731.731,0,0,0-.162.138c-.024.018-.021.034-.014.065s.051.029.088.009.073.025.069.084a.108.108,0,0,0,.01.105.081.081,0,0,0,.1.013,1.942,1.942,0,0,1,.354-.124c.043,0,.04-.116-.028-.12a.4.4,0,0,0-.259.079c-.055.013-.064-.021-.076-.05-.014-.074.031-.126.022-.181a.128.128,0,0,0-.066-.027Zm3.758.14c-.022,0-.045,0-.078.006s-.048.023-.055.067c0,.066.043.063.084.089a.071.071,0,0,1,0,.108c-.039.036-.067.056-.106.092-.018.032-.03.08.027.1.1.029.346-.128.346-.131a.077.077,0,0,0,.023-.085c-.023-.026-.074-.01-.109-.015-.016,0-.071-.008-.045-.056a.325.325,0,0,0,.044-.084c.016-.036,0-.06-.057-.08A.327.327,0,0,0,16.029,7.37Zm-1.57,3.179h0a.165.165,0,0,0-.057.3c-1.835,0-4.652-.031-5.256-.031-.338,0-1.407-.04-1.428-.04a1.083,1.083,0,0,0,1,.411c.815,0,4.593-.01,5.668-.01a.377.377,0,0,0,.067.394l0,0,.007,0h0c.071.017.1-.035.126-.072a7.363,7.363,0,0,0,.825,0h0c.04.059.08.115.157.105.134-.029.239-.043.243-.315,0,0-.014-.463-.318-.434-.072.011-.274.031-.274.031-.234-.028-.405-.031-.668-.04.024-.031.067-.156.015-.2a.085.085,0,0,0-.062-.016H14.5l0,0,0,0c-.013-.019-.021-.067-.029-.079h-.005Zm.125.663h0c.268.013.519,0,.787.016a.1.1,0,0,1-.006.134l0,0h-.007l-.224-.006a.05.05,0,0,0,0-.013c-.021-.061-.17-.057-.205-.009l0,0,0,0,0,0a.041.041,0,0,0,0,.006.04.04,0,0,0,0,.007,2.105,2.105,0,0,1-.341-.008c-.035-.043-.03-.121.01-.139Z" transform="translate(-0.747 -0.474)" fill="#fff" fill-rule="evenodd"/>
</svg>
