<svg id="united-kingdom" xmlns="http://www.w3.org/2000/svg" width="21.992" height="14.662" viewBox="0 0 21.992 14.662">
  <path id="Path_37920" data-name="Path 37920" d="M1.143,14.662H20.849A1.188,1.188,0,0,0,21.992,13.5V1.157A1.185,1.185,0,0,0,20.793,0H1.2A1.185,1.185,0,0,0,0,1.157V13.5a1.189,1.189,0,0,0,1.143,1.161Z" fill="#fefefe"/>
  <path id="Path_37921" data-name="Path 37921" d="M9.458,8.793v5.868h3.06V8.793h9.474V5.861H12.518V0H9.458V5.861H0V8.793Z" fill="#c8102e"/>
  <path id="Path_37922" data-name="Path 37922" d="M15.389,4.746V0h6.96a1.163,1.163,0,0,1,1.061.733L15.389,4.746Z" transform="translate(-1.499)" fill="#012169"/>
  <path id="Path_37923" data-name="Path 37923" d="M15.389,11.762v4.746H22.4a1.171,1.171,0,0,0,1.016-.733l-8.022-4.013Z" transform="translate(-1.499 -1.846)" fill="#012169"/>
  <path id="Path_37924" data-name="Path 37924" d="M8.1,11.762v4.746H1.111A1.162,1.162,0,0,1,.1,15.767L8.1,11.762Z" transform="translate(-0.015 -1.846)" fill="#012169"/>
  <path id="Path_37925" data-name="Path 37925" d="M8.1,4.746V0H1.157A1.161,1.161,0,0,0,.1.741L8.1,4.746Z" transform="translate(-0.015)" fill="#012169"/>
  <path id="Path_37926" data-name="Path 37926" d="M0,5.525H2.921L0,4.062Z" transform="translate(0 -0.638)" fill="#012169"/>
  <path id="Path_37927" data-name="Path 37927" d="M24.453,5.523H21.517l2.936-1.47Z" transform="translate(-2.461 -0.636)" fill="#012169"/>
  <path id="Path_37928" data-name="Path 37928" d="M24.453,11.594H21.517l2.936,1.47Z" transform="translate(-2.461 -1.82)" fill="#012169"/>
  <path id="Path_37929" data-name="Path 37929" d="M0,11.594H2.921L0,13.057Z" transform="translate(0 -1.82)" fill="#012169"/>
  <path id="Path_37930" data-name="Path 37930" d="M23.646,1.472,16.372,5.118H18l5.647-2.825Z" transform="translate(-1.654 -0.231)" fill="#c8102e"/>
  <path id="Path_37931" data-name="Path 37931" d="M7.258,11.594H5.632L0,14.412v.821l7.273-3.639Z" transform="translate(0 -1.82)" fill="#c8102e"/>
  <path id="Path_37932" data-name="Path 37932" d="M4.017,5.276H5.643L0,2.45v.817Z" transform="translate(0 -0.385)" fill="#c8102e"/>
  <path id="Path_37933" data-name="Path 37933" d="M19.91,11.59H18.284l5.662,2.837v-.817Z" transform="translate(-1.954 -1.819)" fill="#c8102e"/>
</svg>
