<svg xmlns="http://www.w3.org/2000/svg" xmlns:xlink="http://www.w3.org/1999/xlink" width="19" height="19" viewBox="0 0 19 19">
  <defs>
    <clipPath id="clip-path">
      <rect id="Rectangle_8722" data-name="Rectangle 8722" width="19" height="19" fill="#fff"/>
    </clipPath>
  </defs>
  <g id="Mask_Group_471" data-name="Mask Group 471" clip-path="url(#clip-path)">
    <path id="noun-invoice-3687026" d="M96.932,17.53a1.905,1.905,0,0,0-1.9,1.9v1.9h6.333a2.542,2.542,0,0,1,2.533,2.533v6.333a1.267,1.267,0,0,0,2.533,0l0-10.767a1.906,1.906,0,0,0-1.9-1.9Zm-7.6,5.065a1.882,1.882,0,0,0-1.9,1.9l0,10.134a1.911,1.911,0,0,0,1.9,1.9h7.6a1.911,1.911,0,0,0,1.9-1.9V23.862a2.5,2.5,0,0,1,.354-1.267Zm12.032,0a1.25,1.25,0,0,0-1.267,1.267v7.6h2.887a2.5,2.5,0,0,1-.354-1.267V23.861a1.25,1.25,0,0,0-1.267-1.267Zm-9.5,3.8H94.4a.633.633,0,1,1,0,1.267H91.87A.633.633,0,1,1,91.87,26.394ZM91.8,28.927a.632.632,0,0,1,.066,0H94.4a.634.634,0,0,1,0,1.268H91.87A.635.635,0,0,1,91.8,28.927Zm0,2.534a.634.634,0,0,1,.066,0H94.4a.633.633,0,1,1,0,1.267H91.87A.634.634,0,0,1,91.8,31.462Z" transform="translate(-87.434 -17.528)" fill="#fff"/>
  </g>
</svg>
