<svg id="check-circle-Bold" xmlns="http://www.w3.org/2000/svg" width="20" height="20" viewBox="0 0 20 20">
  <rect id="Path" width="20" height="20" fill="rgba(255,255,255,0)"/>
  <path id="check-circle-Bold_1_" d="M409.256,1826.077a.833.833,0,0,1,0,1.178l-4.167,4.167a.833.833,0,0,1-1.178,0l-2.5-2.5a.833.833,0,0,1,1.178-1.178l1.911,1.911,3.577-3.578A.833.833,0,0,1,409.256,1826.077Zm4.411,2.256a8.333,8.333,0,1,1-8.333-8.333A8.343,8.343,0,0,1,413.667,1828.333Zm-1.667,0a6.667,6.667,0,1,0-6.667,6.667A6.675,6.675,0,0,0,412,1828.333Z" transform="translate(-395.333 -1818.333)" fill="#bebebe"/>
</svg>
