<svg xmlns="http://www.w3.org/2000/svg" width="16.272" height="16.272" viewBox="0 0 16.272 16.272">
  <g id="noun-progress-172431" transform="translate(-164.638 -94.64)">
    <path id="Path_37048" data-name="Path 37048" d="M235.7,97.712a6.247,6.247,0,0,1,2.756-1.146V94.64a8.152,8.152,0,0,0-4.121,1.708Z" transform="translate(-66.641 0)" fill="#bebebe"/>
    <path id="Path_37049" data-name="Path 37049" d="M166.565,168.462a6.248,6.248,0,0,1,1.146-2.756l-1.365-1.365a8.151,8.151,0,0,0-1.708,4.121Z" transform="translate(0 -66.642)" fill="#bebebe"/>
    <path id="Path_37050" data-name="Path 37050" d="M466.692,164.753a7.884,7.884,0,0,1,1.423,3.433h-1.384a6.57,6.57,0,0,0-1.019-2.452l.981-.981m.028-.414-1.365,1.365a6.246,6.246,0,0,1,1.146,2.756h1.927A8.15,8.15,0,0,0,466.72,164.339Z" transform="translate(-287.518 -66.639)" fill="#bebebe"/>
    <path id="Path_37051" data-name="Path 37051" d="M372.05,94.958a7.887,7.887,0,0,1,3.433,1.423l-.981.981a6.554,6.554,0,0,0-2.452-1.019V94.958m-.273-.313v1.927a6.25,6.25,0,0,1,2.756,1.146l1.365-1.365A8.151,8.151,0,0,0,371.777,94.645Z" transform="translate(-198.047 -0.005)" fill="#bebebe"/>
    <path id="Path_37052" data-name="Path 37052" d="M468.115,302.05a7.885,7.885,0,0,1-1.423,3.433l-.981-.981a6.56,6.56,0,0,0,1.02-2.452h1.384m.313-.273H466.5a6.246,6.246,0,0,1-1.146,2.756l1.365,1.365A8.151,8.151,0,0,0,468.427,301.777Z" transform="translate(-287.518 -198.046)" fill="#bebebe"/>
    <path id="Path_37053" data-name="Path 37053" d="M374.537,395.36a6.244,6.244,0,0,1-2.756,1.146v1.927a8.153,8.153,0,0,0,4.121-1.707Z" transform="translate(-198.051 -287.521)" fill="#bebebe"/>
    <path id="Path_37054" data-name="Path 37054" d="M167.712,304.537a6.246,6.246,0,0,1-1.146-2.756H164.64a8.153,8.153,0,0,0,1.708,4.121Z" transform="translate(-0.002 -198.049)" fill="#bebebe"/>
    <path id="Path_37055" data-name="Path 37055" d="M238.454,396.508a6.248,6.248,0,0,1-2.756-1.146l-1.365,1.365a8.152,8.152,0,0,0,4.121,1.708v-1.927Z" transform="translate(-66.636 -287.523)" fill="#bebebe"/>
  </g>
</svg>
