<svg xmlns="http://www.w3.org/2000/svg" width="15.909" height="15.906" viewBox="0 0 15.909 15.906">
  <g id="Group_36329" data-name="Group 36329" transform="translate(-4182.746 -752.205)">
    <path id="noun-call-5059547" d="M97.637,31.171c-3.749-.12-9.23-6.011-10.589-9.266A4.3,4.3,0,0,1,88,17.168l.678-.679a1.3,1.3,0,0,1,1.8,0l2.191,2.191a1.275,1.275,0,0,1,0,1.8l-1.1,1.1a.854.854,0,0,0-.069,1.124,21.13,21.13,0,0,0,1.741,1.927,21.17,21.17,0,0,0,1.928,1.742.854.854,0,0,0,1.124-.069l1.1-1.1a1.3,1.3,0,0,1,1.8,0l2.191,2.191a1.277,1.277,0,0,1,0,1.8l-.678.678a4.35,4.35,0,0,1-3.077,1.291ZM89.581,16.625c-.463-.038-.906.639-1.219.9h0a3.8,3.8,0,0,0-.836,4.2c1,2.787,5.843,7.625,8.63,8.63h0a3.8,3.8,0,0,0,4.2-.835l.678-.678h0a.766.766,0,0,0,0-1.082L98.84,25.569h0a.784.784,0,0,0-1.082,0l-1.1,1.1c-1.416,1.216-2.578-.658-3.773-1.673C91.867,23.8,90,22.64,91.213,21.223l1.1-1.1a.769.769,0,0,0,0-1.082l-2.191-2.192a.76.76,0,0,0-.541-.224Zm12.04,6.686a.256.256,0,0,1-.246-.323,5.365,5.365,0,0,0-6.483-6.483.255.255,0,0,1-.135-.492,5.872,5.872,0,0,1,7.11,7.11h0a.255.255,0,0,1-.246.187Zm-1.9-.477a.256.256,0,0,1-.245-.326,3.414,3.414,0,0,0-4.1-4.1h0a.255.255,0,0,1-.142-.49,3.927,3.927,0,0,1,4.733,4.734.255.255,0,0,1-.245.184Zm-1.908-.484a.256.256,0,0,1-.244-.329,1.429,1.429,0,0,0-1.708-1.708.255.255,0,1,1-.147-.488,1.927,1.927,0,0,1,2.344,2.343.255.255,0,0,1-.244.181Z" transform="translate(4096.288 736.69)" fill="#fff" stroke="#fff" stroke-width="0.5"/>
  </g>
</svg>
