<svg xmlns="http://www.w3.org/2000/svg" width="20" height="19.966" viewBox="0 0 20 19.966">
  <path id="Layer_15" data-name="Layer 15" d="M3.476,6.352H6.852a2.857,2.857,0,0,0,5.629,0H22.524a.476.476,0,1,0,0-.952H12.481a2.857,2.857,0,0,0-5.629,0H3.476a.476.476,0,1,0,0,.952Zm6.19-2.381a1.9,1.9,0,1,1-1.9,1.9A1.9,1.9,0,0,1,9.667,3.971Zm12.857,8.571H19.148a2.857,2.857,0,0,0-5.629,0H3.476a.476.476,0,0,0,0,.952H13.519a2.857,2.857,0,0,0,5.629,0h3.376a.476.476,0,1,0,0-.952Zm-6.19,2.381a1.9,1.9,0,1,1,1.9-1.9A1.9,1.9,0,0,1,16.333,14.923Zm6.19,4.762H12.481a2.857,2.857,0,0,0-5.629,0H3.476a.476.476,0,1,0,0,.952H6.852a2.857,2.857,0,0,0,5.629,0H22.524a.476.476,0,1,0,0-.952ZM9.667,22.066a1.9,1.9,0,1,1,1.9-1.9A1.9,1.9,0,0,1,9.667,22.066Z" transform="translate(-3 -3.035)"/>
</svg>
