<svg xmlns="http://www.w3.org/2000/svg" width="18.109" height="16.288" viewBox="0 0 18.109 16.288">
  <g id="Group_36328" data-name="Group 36328" transform="translate(-4183 -668.573)">
    <g id="noun-delivery-address-556843" transform="translate(3991.003 544.593)">
      <path id="Path_37015" data-name="Path 37015" d="M371.386,123.98a4.583,4.583,0,0,0-4.583,4.583c0,2.292,3.151,7.448,4.583,7.448s4.583-5.156,4.583-7.448h0a4.583,4.583,0,0,0-4.583-4.583Zm0,11.158c-.773-.132-3.724-4.432-3.724-6.589h0a3.724,3.724,0,0,1,7.431,0c.017,2.157-2.939,6.454-3.69,6.585Z" transform="translate(-165.864)" fill="#fff"/>
      <path id="Path_37016" data-name="Path 37016" d="M199.042,181.931a7.024,7.024,0,0,0,6.039-3.437,2.837,2.837,0,0,1-1.278-.713h-1.739a13.666,13.666,0,0,0,.238-1.765c-.178-.258-.344-.516-.5-.768s-.292-.5-.444-.765H196.61a13.1,13.1,0,0,1,.287-2.438h3.375a8.251,8.251,0,0,1-.238-.859h-2.908c.481-1.518,1.234-2.432,1.916-2.432a1.34,1.34,0,0,1,.96.556,5.386,5.386,0,0,1,.384-1.286,7.021,7.021,0,1,0-1.343,13.908Zm-4.9-3.291h2.085a7.08,7.08,0,0,0,.986,2.16,6.178,6.178,0,0,1-3.071-2.16Zm4.9,2.432c-.693,0-1.432-.92-1.913-2.438h3.827C200.475,180.158,199.736,181.072,199.042,181.072Zm2.813-2.438h2.086a6.178,6.178,0,0,1-3.077,2.163,7.08,7.08,0,0,0,.988-2.157Zm-.381-3.291a13.13,13.13,0,0,1-.287,2.438h-4.3a13.129,13.129,0,0,1-.287-2.438Zm-4.26-6.316a7.078,7.078,0,0,0-.991,2.163h-2.08A6.177,6.177,0,0,1,197.215,169.026Zm-3.624,3.019h2.429a14.076,14.076,0,0,0-.272,2.438H192.9a6.114,6.114,0,0,1,.69-2.438Zm-.69,3.3h2.847a14.078,14.078,0,0,0,.272,2.438h-2.429A6.114,6.114,0,0,1,192.9,175.342Z" transform="translate(0 -41.663)" fill="#fff"/>
      <path id="Path_37017" data-name="Path 37017" d="M430.769,183.465A1.467,1.467,0,1,1,429.3,182a1.467,1.467,0,0,1,1.467,1.467" transform="translate(-223.775 -55.05)" fill="#fff"/>
    </g>
  </g>
</svg>
