<svg xmlns="http://www.w3.org/2000/svg" width="18.314" height="22.589" viewBox="0 0 18.314 22.589">
  <g id="Group_11172" data-name="Group 11172" transform="translate(-157 -762.967)">
    <g id="shopping-bag_1_" data-name="shopping-bag (1)" transform="translate(157 762.967)">
      <g id="Group_11169" data-name="Group 11169" transform="translate(0)">
        <g id="Group_11168" data-name="Group 11168" transform="translate(0)">
          <path id="Path_31565" data-name="Path 31565" d="M71.323,18.628,70.292,5.917a1.61,1.61,0,0,0-1.612-1.461H66.642v-.09a4.466,4.466,0,0,0-8.93,0v.09H55.675a1.61,1.61,0,0,0-1.612,1.459L53.031,18.63a3.64,3.64,0,0,0,.991,2.781,3.812,3.812,0,0,0,2.759,1.179H67.573a3.812,3.812,0,0,0,2.759-1.179A3.641,3.641,0,0,0,71.323,18.628ZM59.065,4.367a3.113,3.113,0,0,1,6.224,0v.09H59.065ZM69.34,20.512a2.408,2.408,0,0,1-1.767.755H56.781a2.408,2.408,0,0,1-1.767-.755,2.3,2.3,0,0,1-.634-1.779L55.412,6.018a.263.263,0,0,1,.263-.239h2.037v1.63a.677.677,0,0,0,1.353,0V5.779h6.224v1.63a.677.677,0,0,0,1.353,0V5.779h2.037a.263.263,0,0,1,.263.24l1.031,12.712A2.3,2.3,0,0,1,69.34,20.512Z" transform="translate(-53.02)" fill="#8e8e8e"/>
        </g>
      </g>
      <g id="Group_11171" data-name="Group 11171" transform="translate(5.983 11.025)">
        <g id="Group_11170" data-name="Group 11170" transform="translate(0)">
          <path id="Path_31566" data-name="Path 31566" d="M190.207,250.087a.661.661,0,0,0-.936,0l-2.954,2.954-1.136-1.136a.662.662,0,0,0-.936.936l1.6,1.6a.661.661,0,0,0,.936,0l3.422-3.422A.662.662,0,0,0,190.207,250.087Z" transform="translate(-184.052 -249.893)" fill="#8e8e8e"/>
        </g>
      </g>
    </g>
  </g>
</svg>
