<svg xmlns="http://www.w3.org/2000/svg" width="14.151" height="14.108" viewBox="0 0 14.151 14.108">
  <g id="noun-replay-602538" transform="translate(-102.955 -33.562)">
    <path id="Path_37045" data-name="Path 37045" d="M113.32,37.312l1.073-.747h0a5.992,5.992,0,0,0-5.317-1.852h-.038l-.205.038-.1.021-.146.038-.16.035-.077.022c-.074.021-.148.043-.22.067h-.016a6.021,6.021,0,0,0-2.779,1.948c-.05.063-.1.127-.144.191l-.042.056c-.034.048-.067.1-.1.146l-.075.112-.059.1c-.035.056-.069.114-.1.172l-.022.042h0a6.017,6.017,0,0,0-.691,3.827.156.156,0,0,0,.01.066c.01.059.021.117.032.176s.018.088.027.132.018.072.026.107c.016.066.032.132.05.2l.016.042a5.986,5.986,0,0,0,4.689,4.259q.152.027.3.047h.022c.093.011.188.021.281.029h.014a5.985,5.985,0,0,0,6.321-4.907.536.536,0,1,1,1.053.189,7.027,7.027,0,0,1-2.876,4.512c-.013.018-.026.018-.035.032a7,7,0,0,1-4.009,1.265,7.143,7.143,0,0,1-1.259-.112q-.178-.032-.353-.072l-.04-.01a7.055,7.055,0,0,1-5.394-7.376v-.013a2.873,2.873,0,0,1,.03-.308v-.051q.022-.178.054-.356a6.608,6.608,0,0,1,.16-.683h0a7.043,7.043,0,0,1,12.061-2.742l1.159-.8c.321-.224.592-.087.6.306l.067,3.285a.443.443,0,0,1-.649.452L113.4,37.98c-.362-.144-.4-.444-.075-.669Z" transform="translate(0)" fill="#fff"/>
  </g>
</svg>
