<svg id="send-Bold" xmlns="http://www.w3.org/2000/svg" width="18" height="18" viewBox="0 0 18 18">
<!--  <rect id="Path" width="18" height="18" fill="rgba(255,255,255,0)"/>-->
  <path id="send-Bold_1_" d="M603.328,2036.672a2.271,2.271,0,0,0-2.175-.6l-9.835,2.458a3.06,3.06,0,0,0,.041,5.947l3.371.793.794,3.37a3.013,3.013,0,0,0,2.957,2.359h.023a3.015,3.015,0,0,0,2.968-2.317h0l2.459-9.835A2.271,2.271,0,0,0,603.328,2036.672Zm-.853,1.812-2.459,9.835a1.483,1.483,0,0,1-1.525,1.181,1.5,1.5,0,0,1-1.508-1.2l-.8-3.417,3.1-3.1a.75.75,0,0,0-1.06-1.061l-3.1,3.1-3.416-.8a1.56,1.56,0,0,1-.021-3.032l9.835-2.458a.844.844,0,0,1,.2-.025.787.787,0,0,1,.551.233A.778.778,0,0,1,602.475,2038.484Z" transform="translate(-587.5 -2034.5)" fill="#bebebe"/>
</svg>
