<svg xmlns="http://www.w3.org/2000/svg" width="16.271" height="16.271" viewBox="0 0 16.271 16.271">
  <g id="wait-4" transform="translate(-179.2 -179.2)">
    <path id="Path_37046" data-name="Path 37046" d="M187.336,179.2a8.136,8.136,0,1,1-8.136,8.136A8.136,8.136,0,0,1,187.336,179.2Zm0,1.252a6.884,6.884,0,1,0,6.884,6.884A6.884,6.884,0,0,0,187.336,180.452Z" fill="#bebebe"/>
    <path id="Path_37047" data-name="Path 37047" d="M488.973,348.032a.627.627,0,0,1-.889,0l-2.22-2.233c-.165-.166-.15-.4-.15-.751s-.081-4.445-.081-4.445a.627.627,0,1,1,1.254,0v4.443c0,.019,2.09,2.092,2.09,2.092a.636.636,0,0,1,0,.894Z" transform="translate(-298.941 -156.838)" fill="#bebebe"/>
  </g>
</svg>
