<svg xmlns="http://www.w3.org/2000/svg" width="14.782" height="15.945" viewBox="0 0 14.782 15.945">
  <g id="Group_35260" data-name="Group 35260" transform="translate(-15.9 -347.9)">
    <g id="noun-tax-statement-3310693" transform="translate(-86.121 335.647)">
      <path id="Path_37018" data-name="Path 37018" d="M231,126.41h7.824v.242H231Z" transform="translate(-125.088 -110.702)" fill="#fff" stroke="#fff" stroke-width="0.2"/>
      <path id="Path_37019" data-name="Path 37019" d="M497.931,136.917h-.242v-9.156a1.106,1.106,0,0,0-1.1-1.1v-.242a1.349,1.349,0,0,1,1.344,1.344Z" transform="translate(-382.863 -110.709)" fill="#fff" stroke="#fff" stroke-width="0.2"/>
      <path id="Path_37020" data-name="Path 37020" d="M147.82,408.06h3.67v.242h-3.67Z" transform="translate(-44.355 -384.068)" fill="#fff" stroke="#fff" stroke-width="0.2"/>
      <path id="Path_37021" data-name="Path 37021" d="M115.77,28.1h-7.824a.933.933,0,0,1-.933-.933V17.052a1.1,1.1,0,0,0-2.2,0V22.89a1.344,1.344,0,1,1-2.689,0V12.353H111.4v3.476h-.242V12.6h-8.793V22.89a1.1,1.1,0,0,0,2.2,0V17.052a1.344,1.344,0,1,1,2.689,0v10.1a.69.69,0,0,0,1.381,0V26.075H116.7v1.078a.935.935,0,0,1-.932.945Zm-7.194-.242h7.194a.69.69,0,0,0,.69-.69V26.33h-7.57v.836a.927.927,0,0,1-.315.69Z" fill="#fff" stroke="#fff" stroke-width="0.2"/>
      <path id="Path_37022" data-name="Path 37022" d="M466.268,500.807H463.24v-.242h3.028a.2.2,0,0,0,.206-.206v-.472h.242v.472a.455.455,0,0,1-.448.448Z" transform="translate(-350.497 -473.194)" fill="#fff" stroke="#fff" stroke-width="0.2"/>
      <path id="Path_37023" data-name="Path 37023" d="M300.59,425.35h6.153v.242H300.59Z" transform="translate(-192.631 -400.849)" fill="#fff" stroke="#fff" stroke-width="0.2"/>
      <path id="Path_37024" data-name="Path 37024" d="M300.59,380.06h6.153v.242H300.59Z" transform="translate(-192.631 -356.892)" fill="#fff" stroke="#fff" stroke-width="0.2"/>
      <path id="Path_37025" data-name="Path 37025" d="M300.59,334.77h6.153v.242H300.59Z" transform="translate(-192.631 -312.934)" fill="#fff" stroke="#fff" stroke-width="0.2"/>
      <path id="Path_37026" data-name="Path 37026" d="M300.59,289.47h6.153v.242H300.59Z" transform="translate(-192.631 -268.966)" fill="#fff" stroke="#fff" stroke-width="0.2"/>
      <path id="Path_37027" data-name="Path 37027" d="M300.59,244.18h6.153v.242H300.59Z" transform="translate(-192.631 -225.008)" fill="#fff" stroke="#fff" stroke-width="0.2"/>
      <path id="Path_37028" data-name="Path 37028" d="M147.82,282.06h1.223v.242H147.82Z" transform="translate(-44.355 -261.774)" fill="#fff" stroke="#fff" stroke-width="0.2"/>
      <path id="Path_37029" data-name="Path 37029" d="M147.82,236.77h1.223v.242H147.82Z" transform="translate(-44.355 -217.816)" fill="#fff" stroke="#fff" stroke-width="0.2"/>
      <path id="Path_37030" data-name="Path 37030" d="M147.82,191.47h1.223v.242H147.82Z" transform="translate(-44.355 -173.849)" fill="#fff" stroke="#fff" stroke-width="0.2"/>
      <path id="Path_37031" data-name="Path 37031" d="M147.82,146.18h1.4v.242h-1.4Z" transform="translate(-44.355 -129.891)" fill="#fff" stroke="#fff" stroke-width="0.2"/>
      <path id="Path_37032" data-name="Path 37032" d="M147.82,100.88h6.443v.242H147.82Z" transform="translate(-44.355 -85.923)" fill="#fff" stroke="#fff" stroke-width="0.2"/>
      <path id="Path_37033" data-name="Path 37033" d="M370.06,157.638l1.79-1.79.171.171-1.79,1.79Z" transform="translate(-260.058 -139.274)" fill="#fff" stroke="#fff" stroke-width="0.2"/>
      <path id="Path_37034" data-name="Path 37034" d="M368.9,154.556a.479.479,0,0,1-.339-.145.49.49,0,0,1,0-.678.48.48,0,0,1,.678.678.44.44,0,0,1-.339.145Zm0-.715a.239.239,0,0,0-.17.073.24.24,0,1,0,.339,0A.175.175,0,0,0,368.9,153.842Z" transform="translate(-258.473 -137.08)" fill="#fff" stroke="#fff" stroke-width="0.2"/>
      <path id="Path_37035" data-name="Path 37035" d="M406.482,192.023a.44.44,0,0,1-.339-.145.458.458,0,0,1-.145-.339.44.44,0,0,1,.145-.339.468.468,0,0,1,.678,0,.458.458,0,0,1,.145.339.44.44,0,0,1-.145.339.478.478,0,0,1-.339.145Zm0-.715a.24.24,0,0,0-.17.412.258.258,0,0,0,.339,0,.242.242,0,0,0-.17-.412Z" transform="translate(-294.939 -173.445)" fill="#fff" stroke="#fff" stroke-width="0.2"/>
    </g>
  </g>
</svg>
