<svg xmlns="http://www.w3.org/2000/svg" width="19.179" height="15.557" viewBox="0 0 19.179 15.557">
  <path id="Path_36" data-name="Path 36" d="M44.073,17.557A11.088,11.088,0,0,0,55.261,6.369V5.836a8.661,8.661,0,0,0,1.918-2.024,8.845,8.845,0,0,1-2.238.639,4.145,4.145,0,0,0,1.7-2.131,9.773,9.773,0,0,1-2.451.959A3.805,3.805,0,0,0,51.319,2a4,4,0,0,0-3.942,3.942,2.077,2.077,0,0,0,.107.852,11.016,11.016,0,0,1-8.1-4.156,4.081,4.081,0,0,0-.533,2.024,4.233,4.233,0,0,0,1.7,3.3,3.592,3.592,0,0,1-1.811-.533h0a3.894,3.894,0,0,0,3.2,3.836,3.285,3.285,0,0,1-1.066.107,1.813,1.813,0,0,1-.746-.107,4.037,4.037,0,0,0,3.729,2.77,8.045,8.045,0,0,1-4.9,1.7A2.95,2.95,0,0,1,38,15.639a10.057,10.057,0,0,0,6.073,1.918" transform="translate(-38 -2)" fill="#fff" fill-rule="evenodd"/>
</svg>
