<svg xmlns="http://www.w3.org/2000/svg" width="11.998" height="11.999" viewBox="0 0 11.998 11.999">
  <path id="globe-Filled_1_" d="M552.652,2559a5.96,5.96,0,0,0-4.8-3.941,6.169,6.169,0,0,0-1.717,0,5.958,5.958,0,0,0-4.792,3.936,5.947,5.947,0,0,0,0,4,5.96,5.96,0,0,0,4.8,3.941,6.158,6.158,0,0,0,.858.06,6.063,6.063,0,0,0,.859-.06A5.958,5.958,0,0,0,552.65,2563a5.947,5.947,0,0,0,0-4Zm-.854,2a4.7,4.7,0,0,1-.154,1.2h-1.727a8.919,8.919,0,0,0,0-2.4h1.727A4.7,4.7,0,0,1,551.8,2561Zm-6.506,1.2a7.839,7.839,0,0,1,0-2.4h3.415a7.834,7.834,0,0,1,0,2.4Zm-2.938,0a4.763,4.763,0,0,1,0-2.4h1.727a8.926,8.926,0,0,0,0,2.4Zm8.79-3.6H549.7a9.869,9.869,0,0,0-.688-1.959A4.742,4.742,0,0,1,551.144,2558.6Zm-3.724-2.371a8.718,8.718,0,0,1,1.046,2.371h-2.934a8.73,8.73,0,0,1,1.046-2.371c.14-.012.279-.029.421-.029S547.28,2556.217,547.42,2556.229Zm-2.431.411a9.872,9.872,0,0,0-.689,1.96h-1.447A4.749,4.749,0,0,1,544.989,2556.64Zm-2.134,6.759H544.3a9.849,9.849,0,0,0,.688,1.958A4.742,4.742,0,0,1,542.855,2563.4Zm3.722,2.37a8.748,8.748,0,0,1-1.045-2.37h2.933a8.731,8.731,0,0,1-1.045,2.37A5.06,5.06,0,0,1,546.577,2565.769Zm2.433-.411a9.9,9.9,0,0,0,.688-1.958h1.446A4.746,4.746,0,0,1,549.01,2565.358Z" transform="translate(-541 -2555)" fill="#fff"/>
</svg>
